<?xml version="1.0" standalone="no"?><!DOCTYPE svg PUBLIC "-//W3C//DTD SVG 1.1//EN" "http://www.w3.org/Graphics/SVG/1.1/DTD/svg11.dtd"><svg t="1685674011825" class="icon" viewBox="0 0 1024 1024" version="1.1" xmlns="http://www.w3.org/2000/svg" p-id="12643" xmlns:xlink="http://www.w3.org/1999/xlink" width="200" height="200"><path d="M512.254726 1019.26209c-280.912239 0-509.452736-228.540498-509.452736-509.452737 0-105.084816 31.728716-205.98193 91.772816-291.778865l28.875781 20.20999C67.573811 318.071721 38.040836 411.984239 38.040836 509.809353c0 261.481711 212.727085 474.208796 474.208796 474.208796 261.481711 0 474.208796-212.727085 474.208796-474.208796 0-261.481711-212.727085-474.208796-474.208796-474.208796-89.928597 0-177.437294 25.268856-253.065552 73.096279l-18.834468-29.792796C321.622607 27.520637 415.642109 0.356617 512.254726 0.356617c280.912239 0 509.452736 228.540498 509.452737 509.452736s-228.540498 509.452736-509.452737 509.452737" fill="#333333" p-id="12644"></path><path d="M611.776318 638.446169h-100.93787c-70.625433 0-130.414806-54.587861-134.072677-125.116497-3.958448-76.183562 56.625672-139.213055 131.948259-139.213055 72.958726 0 132.106189 59.116896 132.162229 132.075622v103.15399a29.09994 29.09994 0 0 1-29.099941 29.09994m-103.062288-385.910448c-40.858109 0-79.44406 9.638846-113.628338 26.787025a79.765015 79.765015 0 0 1-36.807961 8.492577c-24.698269-0.320955-52.850627-4.085811-67.89986-17.662726-30.551881-27.597055-79.296318-76.377154-79.296319-76.377154s-7.590846-7.285174-11.895721-26.165493l-0.081513-14.529592c0.621532-3.280876 0.947582-6.663642 0.947582-10.122826 0-30.765851-25.671323-55.571104-56.788696-54.149731-27.612338 1.263443-50.33393 23.985035-51.597373 51.607562-1.426468 31.107184 23.383881 56.778507 54.144637 56.778508 6.979502 0 13.673711-1.334766 19.807522-3.734289h0.035662c11.946667-0.845692 27.311761 8.915423 38.978229 20.301692 20.072438 19.619025 51.301891 53.344796 63.248557 66.33584 3.922786 4.264119 7.259701 9.017313 9.832438 14.213732 3.912597 7.927085 9.358647 21.025114 13.306905 38.728597 4.187701 18.798806 1.696478 38.616517-7.234229 55.683184-18.426905 35.136955-28.82993 75.149373-28.82993 117.561313 0 133.323781 102.878886 242.652338 233.563701 252.943284 6.658547 0.529831 13.398607 0.815124 20.194707 0.815124h227.674428c14.341095 0 26.08398-11.742886 26.08398-26.124736V506.141294c-0.076418-140.058746-113.633433-253.605572-253.758408-253.605573" fill="#00DFA8" p-id="12645"></path></svg>